<?xml version="1.0" encoding="UTF-8" standalone="no"?>
<!DOCTYPE svg PUBLIC "-//W3C//DTD SVG 1.1//EN" "http://www.w3.org/Graphics/SVG/1.1/DTD/svg11.dtd">
<svg width="100%" height="100%" viewBox="0 0 91 81" version="1.1" xmlns="http://www.w3.org/2000/svg" xmlns:xlink="http://www.w3.org/1999/xlink" xml:space="preserve" xmlns:serif="http://www.serif.com/" style="fill-rule:evenodd;clip-rule:evenodd;stroke-linejoin:round;stroke-miterlimit:2;">
    <g id="e">
        <path d="M19.684,80.272l-10.32,0l0,-9.235l-9.364,0l0,-30.287l9.364,-0l0,-19.18l9.425,-0l-0,-10.818l10.595,0l-0,-10.752l49.988,-0l0,10.752l10.656,0l-0,28.093l-17.891,-0l0,7.2l-32.421,0l0,4.036l-19.757,0l0,12.973l0,-0.089l33.39,-0l-0,-12.367l16.084,0l0,0.009l9.754,-0l0,10.591l-9.754,-0l0,9.839l-10.787,0l0,9.235l-38.44,0l-0,0.001l-0.522,-0l-0,-0.001Zm51.031,-44.818l-0,-13.884l-30.999,-0l0,13.884l30.999,0Z" style="fill:#ffd321;"/>
    </g>
</svg>
