<?xml version="1.0" encoding="UTF-8" standalone="no"?>
<!DOCTYPE svg PUBLIC "-//W3C//DTD SVG 1.1//EN" "http://www.w3.org/Graphics/SVG/1.1/DTD/svg11.dtd">
<svg width="100%" height="100%" viewBox="0 0 170 111" version="1.1" xmlns="http://www.w3.org/2000/svg" xmlns:xlink="http://www.w3.org/1999/xlink" xml:space="preserve" xmlns:serif="http://www.serif.com/" style="fill-rule:evenodd;clip-rule:evenodd;stroke-linejoin:round;stroke-miterlimit:2;">
    <g id="face">
        <path id="background" d="M120,111L49,111L49,101L30,101L30,81L19,81L19,52L9,52L9,40L0,40L0,10L9,10L9,0L40,0L40,10L60,10L60,0L120,0L120,10L129,10L129,0L160,0L160,10L170,10L170,40L160,40L160,50L149,50L149,81L140,81L140,101L120,101L120,111Z" style="fill:rgb(225,0,255);"/>
        <path id="ear-2" d="M40,10L40,21.613L29.667,21.613L29.667,30.323L19.333,30.323L19.333,40L9,40L9,10L40,10Z" style="fill:rgb(255,153,0);"/>
        <path id="ear-1" d="M129,10L129,21.613L139.333,21.613L139.333,30.323L149.667,30.323L149.667,40L160,40L160,10L129,10Z" style="fill:rgb(255,153,0);"/>
        <rect id="eye-2" x="39" y="40" width="10" height="21" style="fill:rgb(45,0,255);"/>
        <rect id="eye-1" x="119" y="40" width="10" height="21" style="fill:rgb(45,0,255);"/>
        <rect id="mouth" x="49" y="70" width="70" height="11" style="fill:rgb(114,77,79);"/>
    </g>
</svg>
