<?xml version="1.0" encoding="UTF-8" standalone="no"?>
<!DOCTYPE svg PUBLIC "-//W3C//DTD SVG 1.1//EN" "http://www.w3.org/Graphics/SVG/1.1/DTD/svg11.dtd">
<svg width="100%" height="100%" viewBox="0 0 211 191" version="1.1" xmlns="http://www.w3.org/2000/svg" xmlns:xlink="http://www.w3.org/1999/xlink" xml:space="preserve" xmlns:serif="http://www.serif.com/" style="fill-rule:evenodd;clip-rule:evenodd;stroke-linejoin:round;stroke-miterlimit:2;">
    <g id="heart">
        <path d="M139.13,10L139,0L181,0L181,10L191,10L191,20L200.5,20L200.5,40L211,40L211,90.5L201,90.5L201,99.5L191,99.5L191,120.5L181,120.5L181,131L171,131L171,141.5L160.5,141.5L160.5,150.815L151,150.815L151,159.685L140,159.685L140,169.685L121,169.685L121,180.185L110,180.185L110,190.685L101,190.685L101,180.185L90,180.185L90,169.685L70,169.685L70,159.685L60,159.685L60,150.815L50.5,150.815L50.5,141.5L40,141.5L40,131L30,131L30,120L20,120L20,100L10,100L10,90.5L0,90.5L0,40L10,40L10,21L20,21L20,10L30,10L30,1L71,1L71,10L80,10L80,20.5L90,20.5L90,29L101,29L101,40L110,40L110,29.5L120.5,29.5L120.5,20L130,20L130,10L139.13,10Z" style="fill:rgb(55,0,255);"/>
    </g>
</svg>
