<?xml version="1.0" encoding="UTF-8" standalone="no"?>
<!DOCTYPE svg PUBLIC "-//W3C//DTD SVG 1.1//EN" "http://www.w3.org/Graphics/SVG/1.1/DTD/svg11.dtd">
<svg width="100%" height="100%" viewBox="0 0 182 171" version="1.1" xmlns="http://www.w3.org/2000/svg" xmlns:xlink="http://www.w3.org/1999/xlink" xml:space="preserve" xmlns:serif="http://www.serif.com/" style="fill-rule:evenodd;clip-rule:evenodd;stroke-linejoin:round;stroke-miterlimit:2;">
    <g id="J">
        <path d="M69.89,38.705l-9.271,-0l0,-20.177l9.207,-0l-0,-8.978l59.345,-0l0,-9.55l51.926,0l0,9.586l-10.492,0l0,11.223l-9.816,-0l0,18.857l-9.776,-0l0,21.081l-9.947,0l-0,18.585l-9.947,-0l-0,20.665l-9.791,0l-0,20.469l-9.685,0l0,18.886l-9.176,-0l-0,10.389l-11.366,0l-0,9.586l-10.137,0l0.062,0l0,10.878l-0.062,-0l-0,0.028l-50.92,0l0,-0.028l-0.169,-0l0,-10.878l0.169,0l-20.059,0l-0,-19.172l-9.985,0l0,-20.694l10.462,0l-0,-20.755l19.413,-0l0,-8.525l30.744,0l0,20.194l-9.597,0l-0,9.086l-19.503,0l-0,20.694l8.951,0l0,9.446l29.961,-0l0,-9.446l10.075,0l-0,-9.586l9.037,0l-0,-19.919l10.595,0l-0,-20.952l10.596,0l-0,-19.952l10.595,-0l-0,-19.891l9.79,0l-0,-19.618l8.226,0l-0,-20.651l-7.675,0l-0,10.052l-51.164,0l-0,8.978l-9.292,0l0,4.922l0.002,-0l-0,5.167l9.29,-0l-0,9.586l-10.595,-0l-0,-7.407l-0.021,0l-0,-2.179Z" style="fill:#ffd321;"/>
    </g>
</svg>
