<?xml version="1.0" encoding="UTF-8" standalone="no"?>
<!DOCTYPE svg PUBLIC "-//W3C//DTD SVG 1.1//EN" "http://www.w3.org/Graphics/SVG/1.1/DTD/svg11.dtd">
<svg width="100%" height="100%" viewBox="0 0 587 497" version="1.1" xmlns="http://www.w3.org/2000/svg" xmlns:xlink="http://www.w3.org/1999/xlink" xml:space="preserve" xmlns:serif="http://www.serif.com/" style="fill-rule:evenodd;clip-rule:evenodd;stroke-linejoin:round;stroke-miterlimit:2;">
    <g id="junior-face">
        <path id="head" d="M76.896,132.279L76.896,118.996L81.823,118.996L81.823,107.171L91.677,107.171L91.677,93.849L104.999,93.849L104.999,76.348L111.306,76.348L111.306,64.996L119.504,64.996L119.504,51.752L136.532,51.752L136.532,41.662L367.668,41.662L367.668,51.752L381.542,51.752L381.542,64.996L399.201,64.996L399.201,76.348L422.535,76.348L422.535,93.849L440.509,93.849L440.509,104.215L442.48,104.215L442.48,107.171L453.319,107.171L453.319,117.648L464.04,117.648L464.04,118.996L464.159,118.996L464.159,133.777L464.04,133.777L472.042,133.777L472.042,140.675L481.896,140.675L481.896,164.325L495.691,164.325L495.691,175.164L501.604,175.164L501.604,222.463L512.458,222.463L512.458,279.617L501.604,279.617L501.604,361.405L482.881,361.405L482.881,384.069L473.027,384.069L473.027,401.806L461.202,401.806L461.202,411.66L452.334,411.66L452.334,421.514L443.465,421.514L443.465,433.339L433.611,433.339L433.611,443.193L422.772,443.193L422.772,452.062L411.932,452.062L411.932,459.945L404.049,459.945L404.049,472.755L383.356,472.755L383.356,482.609L363.648,482.609L363.648,492.463L322.261,492.463L322.261,502.317L233.575,502.317L233.575,492.463L195.144,492.463L195.144,482.609L173.465,482.609L173.465,472.755L154.742,472.755L154.742,459.945L143.903,459.945L143.903,452.062L132.078,452.062L132.078,443.193L124.195,443.193L124.195,433.339L114.341,433.339L114.341,421.514L103.502,421.514L103.502,411.66L93.647,411.66L93.647,402.792L81.823,402.792L81.823,379.142L73.939,379.142L73.939,361.405L61.129,361.405L61.129,329.872L56.202,329.872L56.202,292.427L45.363,292.427L45.363,222.463L54.231,222.463L54.231,154.47L65.071,154.47L65.071,133.777L65.465,133.777L65.465,132.279L76.896,132.279Z" style="fill:rgb(255,209,178);"/>
        <rect x="162.316" y="52.162" width="85.561" height="33.923" style="fill:rgb(198,118,54);"/>
        <path id="mouth" d="M113.339,317.864L103.091,317.864L103.091,289.484L434.185,289.484L434.185,317.864L422.361,317.864L422.361,337.937L408.959,337.937L408.959,358.222L403.441,358.222L403.441,373.2L390.039,373.2L390.039,387.024L379.003,387.024L379.003,399.849L373.28,399.849L373.28,409.682L352.292,409.682L352.292,420.015L337.116,420.015L337.116,429.379L312.899,429.379L312.899,439.066L231.519,439.066L231.519,429.379L204.395,429.379L204.395,420.015L186.636,420.015L186.636,409.682L167.262,409.682L167.262,399.849L155.908,399.849L155.908,387.024L146.448,387.024L146.448,373.2L133.047,373.2L133.047,358.222L122.799,358.222L122.799,337.937L113.339,337.937L113.339,317.864Z" style="fill:rgb(178,30,7);"/>
        <path id="teeths" d="M124.215,298.827L113.721,298.827L113.721,289.14L425.316,289.14L425.316,298.827L416.436,298.827L416.436,308.11L385.761,308.11L385.761,319.412L341.766,319.412L341.766,328.695L186.776,328.695L186.776,319.412L152.468,319.412L152.468,308.11L124.215,308.11L124.215,298.827Z" style="fill:rgb(255,252,205);"/>
        <path id="tounge" d="M295.35,361.581L315.531,361.581L315.531,370.864L325.622,370.864L325.622,399.118L315.531,399.118L315.531,408.805L295.35,408.805L295.35,419.702L244.09,419.702L244.09,408.805L225.927,408.805L225.927,399.118L214.626,399.118L214.626,370.864L225.927,370.864L225.927,361.581L244.09,361.581L244.09,351.087L295.35,351.087L295.35,361.581Z" style="fill:rgb(215,74,6);"/>
        <g id="eyes">
            <path d="M395.679,132.023L405.774,132.023L405.774,171.88L395.679,171.88L395.679,186.251L359.83,186.251L359.83,171.88L348.817,171.88L348.817,132.023L359.83,132.023L359.83,120.732L395.679,120.732L395.679,132.023Z" style="fill:rgb(13,14,50);"/>
            <path d="M189.028,137.274L199.123,137.274L199.123,177.131L189.028,177.131L189.028,191.502L153.178,191.502L153.178,177.131L142.165,177.131L142.165,137.274L153.178,137.274L153.178,125.983L189.028,125.983L189.028,137.274Z" style="fill:rgb(13,14,50);"/>
        </g>
        <g id="hair">
            <path d="M203.863,85.898L196.936,85.898L196.936,95.55L186.541,95.55L186.541,105.945L170.206,105.945L170.206,120.052L138.278,120.052L138.278,133.417L84.819,133.417L84.819,164.602L74.424,164.602L74.424,252.959L66.999,252.959L66.999,282.149L76.651,282.149L76.651,316.071L69.226,316.071L69.226,344.286L59.574,344.286L59.574,353.428L66.256,353.428L66.256,368.278L78.136,368.278L78.136,394.265L85.561,394.265L85.561,409.115L88.531,409.115L88.531,440.811L66.256,440.811L66.256,454.176L49.179,454.176L49.179,462.343L38.784,462.343L38.784,473.481L8.91,473.481L8.91,456.403L0,456.403L0,435.845L10.395,435.845L10.395,411.343L17.82,411.343L17.82,397.235L32.67,397.235L32.67,378.441L21.532,378.441L21.532,367.304L8.91,367.304L8.91,357.141L21.532,357.141L21.532,346.746L28.215,346.746L28.215,335.608L37.867,335.608L37.867,310.363L45.292,310.363L45.292,297.509L35.64,297.509L35.64,280.432L27.472,280.432L27.472,190.822L43.065,190.822L43.065,131.422L52.717,131.422L52.717,111.374L69.795,111.374L69.795,98.009L80.19,98.009L80.19,80.932L100.979,80.932L100.979,72.022L111.374,72.022L111.374,61.627L120.284,61.627L120.284,21.532L138.104,21.532L138.104,11.88L163.001,11.88L163.001,2.9L244.374,2.9L244.374,11.88L271.185,11.88L271.185,23.017L297.741,23.017L297.741,17.82L326.698,17.82L326.698,10.395L334.123,10.395L334.123,0L364.74,0L364.74,10.395L369.195,10.395L369.195,22.275L389.985,22.275L389.985,37.125L408.547,37.125L408.547,49.005L415.229,49.005L415.229,60.885L424.139,60.885L424.139,72.765L429.337,72.765L429.337,83.902L443.444,83.902L443.444,97.287L456.148,97.287L456.148,118.633L465.43,118.633L465.43,132.411L490.489,132.411L490.489,165.039L504.411,165.039L504.411,214.407L515.122,214.407L515.122,253.274L516.508,253.274L516.508,295.566L544.544,295.566L544.544,316.913L562.179,316.913L562.179,330.284L544.544,330.284L544.544,346.003L563.728,346.003L563.728,386.098L573.729,386.098L573.729,405.01L586.829,405.01L586.829,418.381L573.729,418.381L573.729,436.031L553.533,436.031L553.533,447.911L547.22,447.911L547.22,459.961L489.153,459.961L489.153,447.911L474.306,447.911L474.306,420.763L461.09,420.763L461.09,375.703L470,375.703L470,347.918L463.312,347.918L463.312,330.284L452.474,330.284L452.474,316.913L463.312,316.913L463.312,293.71L469.616,293.71L469.616,269.17L463.822,269.17L463.822,163.972L450.133,163.972L450.133,155.155L429.482,155.155L429.482,145.874L403.495,145.874L403.495,124.527L394.213,124.527L394.213,107.821L384.932,107.821L384.932,87.383L371.991,87.383L371.991,75.503L360.853,75.503L360.853,62.88L351.201,62.88L351.201,51L314.25,51L314.25,64.082L323.16,64.082L323.16,75.012L334.565,75.012L334.565,87.402L319.036,87.402L319.036,76.473L301.453,76.473L301.453,64.85L292.543,64.85L292.543,51L274.898,51L274.898,62.138L258.563,62.138L258.563,71.048L247.512,71.048L247.512,86.19L203.863,86.19L203.863,85.898Z" style="fill:rgb(198,118,54);"/>
        </g>
    </g>
</svg>
