<?xml version="1.0" encoding="UTF-8" standalone="no"?>
<!DOCTYPE svg PUBLIC "-//W3C//DTD SVG 1.1//EN" "http://www.w3.org/Graphics/SVG/1.1/DTD/svg11.dtd">
<svg width="100%" height="100%" viewBox="0 0 91 81" version="1.1" xmlns="http://www.w3.org/2000/svg" xmlns:xlink="http://www.w3.org/1999/xlink" xml:space="preserve" xmlns:serif="http://www.serif.com/" style="fill-rule:evenodd;clip-rule:evenodd;stroke-linejoin:round;stroke-miterlimit:2;">
    <g id="n">
        <path d="M80.862,18.599l9.557,-0l0,32.031l-10.076,0l-0,19.245l-10.076,-0l-0,10.333l-19.374,-0l-0,-20.924l9.557,-0l0,-19.245l9.817,0l-0,-20.407l-20.149,0l-0,10.333l-9.296,-0l0,20.665l-10.853,0l-0,19.116l-9.687,-0l-0,10.849l-20.282,0l0,-21.44l10.141,-0l-0,-19.632l8.975,-0l-0,-20.924l10.595,-0l-0,-18.599l51.151,-0l-0,18.599Z" style="fill:#ffd321;"/>
    </g>
</svg>
