<?xml version="1.0" encoding="UTF-8" standalone="no"?>
<!DOCTYPE svg PUBLIC "-//W3C//DTD SVG 1.1//EN" "http://www.w3.org/Graphics/SVG/1.1/DTD/svg11.dtd">
<svg width="100%" height="100%" viewBox="0 0 102 81" version="1.1" xmlns="http://www.w3.org/2000/svg" xmlns:xlink="http://www.w3.org/1999/xlink" xml:space="preserve" xmlns:serif="http://www.serif.com/" style="fill-rule:evenodd;clip-rule:evenodd;stroke-linejoin:round;stroke-miterlimit:2;">
    <g id="o">
        <path d="M91.198,9.816l10.595,0l0,21.182l-10.205,0l-0,19.374l-9.689,-0l-0,19.761l-20.149,0l0,10.462l-51.155,0l0,-10.462l-10.595,0l0,-19.761l10.595,-0l0,-19.632l10.595,-0l0,-20.924l20.149,0l-0,-9.816l49.859,0l0,9.816Zm-49.859,11.366l-0,20.149l-10.074,-0l-0,18.34l29.189,0l0,-19.89l10.723,-0l-0,-18.599l-29.838,0Z" style="fill:#ffd321;"/>
    </g>
</svg>
