<?xml version="1.0" encoding="UTF-8" standalone="no"?>
<!DOCTYPE svg PUBLIC "-//W3C//DTD SVG 1.1//EN" "http://www.w3.org/Graphics/SVG/1.1/DTD/svg11.dtd">
<svg width="100%" height="100%" viewBox="0 0 122 81" version="1.1" xmlns="http://www.w3.org/2000/svg" xmlns:xlink="http://www.w3.org/1999/xlink" xml:space="preserve" xmlns:serif="http://www.serif.com/" style="fill-rule:evenodd;clip-rule:evenodd;stroke-linejoin:round;stroke-miterlimit:2;">
    <g id="r">
        <path d="M100.968,29.965l-10.688,-0l0,-10.075l-9.685,0l0,-0.015l-9.554,-0l0,10.09l-20.796,-0l-0,9.816l-9.308,-0l0,21.182l-10.523,0l-0,19.374l-30.414,-0l0,-10.591l9.295,-0l0,-19.374l10.595,-0l0,-20.407l9.554,-0l0,-20.149l10.595,0l0,-9.816l20.411,-0l0,19.374l10.323,-0l-0,-9.429l9.822,0l0,-9.945l29.194,0l0,9.816l11.235,0l-0,20.149l-9.546,-0l-0,3.061l-0.008,0l0,7.53l-10.595,-0l0,-10.591l0.093,-0Z" style="fill:#ffd321;"/>
    </g>
</svg>
