<?xml version="1.0" encoding="UTF-8" standalone="no"?>
<!DOCTYPE svg PUBLIC "-//W3C//DTD SVG 1.1//EN" "http://www.w3.org/Graphics/SVG/1.1/DTD/svg11.dtd">
<svg width="100%" height="100%" viewBox="0 0 152 201" version="1.1" xmlns="http://www.w3.org/2000/svg">
    <g id="S">
        <path d="M100.305,111.103l-10.037,-0l0,-10.256l-9.534,0l0,-10.152l-9.534,0l0,-9.299l-10.277,-0l0,-40.763l9.685,0l0,-19.993l-21.162,-0l0,-10.049l-19.37,0l0,20.097l-19.274,0l-0,-20.097l9.637,0l0,-10.591l29.909,-0l0,10.049l20.852,-0l0,9.635l10.003,-0l0,10.427l0.068,0l-0,-0.069l8.997,0l0,-9.738l40.56,-0l0,10.591l9.92,-0l-0,9.738l10.464,0l-0,20.304l-9.789,0l0,10.591l-30.875,0l0,-10.591l-11.298,0l-0,-10.152l-8.982,0l0,-10.152l-8.997,0l-0,-0.047l-0.068,0l0,0.047l-0.91,0l0,30.172l9.975,-0l0,9.945l20.074,0l-0,10.049l10.595,-0l-0,8.739l0.049,-0l-0,11.565l9.546,-0l0,40.142l-10.354,0l-0,19.891l-9.149,-0l0,10.591l-9.657,-0l0,9.532l-21.19,-0l-0,9.299l-40.147,0l0,-9.299l-20.459,-0l0,-10.591l-8.981,-0l0,-9.662l-10.595,0l0,-40.349l10.182,0l-0,-20.11l9.919,0l0,-10.036l29.814,0l0,30.663l-19.839,-0l0,9.596l-9.562,0l0,29.306l12.042,0l0,10.592l18.694,-0l0,9.299l9.355,-0l0,-9.299l19.577,-0l-0,-9.532l10.595,-0l-0,-20.717l9.528,-0l0,-39.314l0,0l0,-0.002Zm-8.437,-80.208l-0,9.299l8.995,0l0,10.152l19.37,0l0,10.591l10.258,0l-0,-19.451l-10.258,-0l0,-10.591l-28.365,-0Z" style="fill:#ffd321;"/>
    </g>
</svg>
