<?xml version="1.0" encoding="UTF-8" standalone="no"?>
<!DOCTYPE svg PUBLIC "-//W3C//DTD SVG 1.1//EN" "http://www.w3.org/Graphics/SVG/1.1/DTD/svg11.dtd">
<svg width="100%" height="100%" viewBox="0 0 515 497" version="1.1" xmlns="http://www.w3.org/2000/svg" xmlns:xlink="http://www.w3.org/1999/xlink" xml:space="preserve" xmlns:serif="http://www.serif.com/">
    <g id="senior-face">
        <path id="head" d="M31.533,126.636l-0,-13.283l4.927,0l-0,-11.825l9.854,0l-0,-13.322l13.323,-0l-0,-17.501l6.306,0l0,-11.352l8.199,0l-0,-13.244l17.027,0l0,-10.09l231.136,-0l0,10.09l13.875,0l-0,13.244l17.658,0l0,11.352l23.334,0l0,17.501l17.974,-0l0,10.366l1.971,0l-0,2.956l10.839,0l0,10.477l10.721,0l0,1.348l0.119,0l-0,14.781l-0.119,0l8.002,0l-0,6.898l9.854,0l-0,23.65l13.796,-0l-0,10.839l5.912,0l-0,47.299l10.854,0l0,57.154l-10.854,-0l-0,81.788l-18.723,0l0,22.664l-9.854,0l0,17.738l-11.824,-0l-0,9.854l-8.869,-0l-0,9.854l-8.869,-0l0,11.824l-9.854,0l0,9.854l-10.839,0l-0,8.869l-10.84,0l0,7.883l-7.883,0l0,12.81l-20.693,0l-0,9.855l-19.708,-0l-0,9.854l-41.387,-0l-0,9.854l-88.686,-0l-0,-9.854l-38.431,-0l0,-9.854l-21.679,-0l0,-9.855l-18.722,0l-0,-12.81l-10.84,0l0,-7.883l-11.825,0l0,-8.869l-7.883,0l0,-9.854l-9.854,0l0,-11.824l-10.839,-0l-0,-9.854l-9.854,-0l-0,-8.869l-11.825,-0l-0,-23.65l-7.883,0l-0,-17.737l-12.811,0l0,-31.533l-4.927,0l0,-37.445l-10.839,-0l0,-69.964l8.869,0l-0,-67.992l10.839,-0l0,-20.694l0.394,0l0,-1.498l11.431,0Z" style="fill:#ffd1b2;"/>
        <path id="mouth" d="M78.852,303.157l-10.248,0l0,-28.379l331.095,-0l0,28.379l-11.825,0l0,20.073l-13.401,0l-0,20.285l-5.518,0l-0,14.978l-13.402,0l0,13.825l-11.036,0l-0,12.825l-5.723,-0l0,9.833l-20.988,0l-0,10.333l-15.176,-0l-0,9.364l-24.218,-0l0,9.687l-81.38,-0l0,-9.687l-27.123,-0l0,-9.364l-17.759,-0l-0,-10.333l-19.374,0l-0,-9.833l-11.354,-0l-0,-12.825l-9.46,0l-0,-13.825l-13.402,0l0,-14.978l-10.248,0l0,-20.285l-9.46,0l0,-20.073Z" style="fill:#b21e07;"/>
        <path id="teeths" d="M89.729,284.121l-10.495,-0l0,-9.687l311.596,-0l-0,9.687l-8.88,-0l-0,9.283l-30.675,-0l-0,11.301l-43.995,0l0,9.284l-154.99,-0l-0,-9.284l-34.308,0l0,-11.301l-28.253,-0l-0,-9.283Z" style="fill:#fffccd;"/>
        <path id="tounge" d="M260.864,346.875l20.181,-0l-0,9.283l10.09,-0l0,28.253l-10.09,0l-0,9.687l-20.181,0l-0,10.898l-51.26,-0l-0,-10.898l-18.163,0l-0,-9.687l-11.301,0l-0,-28.253l11.301,-0l-0,-9.283l18.163,-0l-0,-10.495l51.26,0l-0,10.495Z" style="fill:#d74a06;"/>
        <g id="mst">
            <path d="M210.872,226.209l8.072,0l-0,12.614l-10.091,-0l0,15.135l-4.036,0l0,0.116l-145.808,-0l0,-10.711l13.118,0l-0,-6.559l36.83,0l0,-10.595l69.12,0l0,-9.081l32.795,-0l-0,9.081Z" style="fill:#ff9f2d;fill-opacity:0.99;"/>
            <path d="M259.306,225.705l-8.072,-0l-0,12.613l10.09,-0l0,15.136l4.036,-0l0,0.115l145.808,0l0,-10.71l-13.117,-0l-0,-6.559l-36.831,-0l0,-10.595l-69.12,-0l0,-9.082l-32.794,0l-0,9.082Z" style="fill:#ff9f2d;"/>
        </g>
        <g id="eye">
            <path d="M356.573,151.729l8.524,0l0,20.072l-10.036,0l0,-18.782l-25.547,0l0,11.092l-11.252,-0l-0,-11.557l7.899,-0l-0,-9.989l30.412,-0l0,9.164Z" style="fill:#0e0f33;"/>
            <path d="M114.246,157.298l-8.524,-0l0,20.072l10.036,0l0,-18.782l25.547,-0l-0,11.091l11.253,0l-0,-11.556l-7.899,-0l-0,-9.989l-30.413,-0l0,9.164Z" style="fill:#0e0f33;"/>
        </g>
        <g id="hair">
            <path d="M373.717,105.079l-7.514,0l-0,-8.577l-12.109,0l0,-7.526l-11.872,0l-0,-11.285l-25.542,-0l-0,-9.504l-17.226,-0l-0,-9.937l-8.257,0l-0,8.168l-8.168,-0l0,28.957l-11.583,0l0,17.642l-32.313,-0l-0,10.929l-30.413,0l0,9.979l-48.945,0l-0,10.455l-80.29,-0l0,19.221l-9.245,-0l0,32.845l-18.004,0l-0,27.493l-15.413,0l0,55.824l12.474,0l0,35.64l10.098,-0l0,35.64l10.098,-0l0,22.572l7.099,-0l0,4.526l0.072,0l-0,2.602l9.461,-0l-0,14.16l-9.461,0l-0,9.941l-9.428,-0l-0,10.036l-8.156,-0l-0,-10.036l-10.341,-0l0,-8.177l-10.644,0l0,-22.572l-8.91,0l0,-18.414l-12.474,0l0,-30.887l-8.316,-0l0,-38.61l-8.316,-0l0,-70.573l8.357,0l0,-67.353l11.678,-0l0,-21.897l11.679,-0l-0,-13.139l5,0l-0,-11.648l9.858,-0l-0,-13.365l13.365,-0l-0,-17.078l5.747,0l-0,-30.442l25.257,-0l0,-7.425l9.98,-0l-0,-7.565l-18.533,0l-0,-13.819l26.105,-0l0,10.454l9.504,0l0,10.93l10.96,-0l0,-19.008l9.029,-0l0,-14.256l26.106,0l-0,16.195l-9.029,0l-0,10l18.563,0l-0,-7.662l45.113,-0l0,7.662l20.315,0l-0,7.633l32.313,0l0,0.921l52.421,-0l-0,10.385l12.331,0l-0,9.504l17.226,-0l-0,11.286l25.542,-0l-0,16.388l10.319,0l-0,10.825l15.797,-0l-0,10.952l10.539,0l0,10.54l10.746,-0l0,9.712l8.886,0l0,8.886l9.3,0l-0,22.124l10.946,0l-0,17.877l12.153,-0l0,25.087l-0.146,0l0,17.151l7.884,-0l-0,59.912l-7.884,0l0,46.511l-11.036,-0l-0,33.109l-10.248,0l-0,22.862l-10.248,-0l-0,12.613l-1.577,-0l-0,6.306l-11.037,0l0,6.307l-8.385,0l0,13.265l-9.459,0l-0,-13.265l-7.382,0l0,-6.307l-11.825,0l0,-9.459l11.825,-0l0,-7.884l7.883,0l0,-22.073l10.249,0l-0,-40.204l10.248,0l-0,-50.453l11.036,0l0,-51.96l-12.903,0l0,-30.131l-9.6,-0l0,-27.692l-9.092,0l-0,-12.192l-20.872,-0l-0,-10.333l-11.366,0l-0,-29.319Z" style="fill:#ff9f2d;fill-opacity:0.97;"/>
        </g>
        <g id="hat">
            <path d="M344.501,43.143l1.513,0l0,25.523l55.687,0l0,7.462l70.51,0l-0,7.62l42.025,0l-0,15.082l-132.313,0l0,9.634l-119.096,0l-0,11.286l-209.459,0l0,-19.76l-10.153,0l-0,-30.163l13.922,-0l-0,-18.563l34.804,0l0,-8.121l170.811,0l0,-16.019l81.749,-0l0,16.019Z" style="fill:#6e65e2;"/>
            <g id="stars">
                <path d="M308.962,67.251l9.488,0l0,11.078l-9.488,0l-0,9.489l-11.078,-0l-0,-9.489l-9.489,0l-0,-11.078l9.489,0l-0,-9.488l11.078,-0l-0,9.488Z" style="fill:#fefbab;"/>
                <path d="M247.334,73.191l9.489,0l-0,11.078l-9.489,0l0,9.489l-11.078,-0l0,-9.489l-9.488,0l-0,-11.078l9.488,0l0,-9.488l11.078,-0l0,9.488Z" style="fill:#fefbab;"/>
                <path d="M171.6,78.389l9.488,-0l0,11.078l-9.488,-0l-0,9.488l-11.078,0l-0,-9.488l-9.489,-0l0,-11.078l9.489,-0l-0,-9.489l11.078,-0l-0,9.489Z" style="fill:#fefbab;"/>
                <path d="M107.003,79.131l9.488,0l0,11.078l-9.488,0l-0,9.489l-11.078,-0l-0,-9.489l-9.489,0l-0,-11.078l9.489,0l-0,-9.489l11.078,0l-0,9.489Z" style="fill:#fefbab;"/>
            </g>
        </g>
    </g>
</svg>
