<?xml version="1.0" encoding="UTF-8" standalone="no"?>
<!DOCTYPE svg PUBLIC "-//W3C//DTD SVG 1.1//EN" "http://www.w3.org/Graphics/SVG/1.1/DTD/svg11.dtd">
<svg width="100%" height="100%" viewBox="0 0 1920 1080" version="1.1" xmlns="http://www.w3.org/2000/svg" xmlns:xlink="http://www.w3.org/1999/xlink" xml:space="preserve" xmlns:serif="http://www.serif.com/" style="fill-rule:evenodd;clip-rule:evenodd;stroke-linejoin:round;stroke-miterlimit:2;">
    <g id="star">
        <path d="M110,49L110,60L160,60L160,70L150,70L150,80L130,80L130,91L120,91L120,109L131,109L131,129L140,129L140,149L150,149L150,160L130,160L130,150L110,150L110,140L99,140L99,130L80,130L80,120L69,120L69,130L60,130L60,141L30,141L30,150L20,150L20,160L10,160L10,140L20,140L20,119L30,119L30,100L40,100L40,90L29,90L29,80L10,80L10,70L0,70L0,60L50,60L50,40L60,40L60,20L70,20L70,0L81,0L81,10L91,10L91,30L100,30L100,49L110,49Z" style="fill:rgb(255,0,95);"/>
    </g>
</svg>
