<?xml version="1.0" encoding="UTF-8" standalone="no"?>
<!DOCTYPE svg PUBLIC "-//W3C//DTD SVG 1.1//EN" "http://www.w3.org/Graphics/SVG/1.1/DTD/svg11.dtd">
<svg width="100%" height="100%" viewBox="0 0 113 82" version="1.1" xmlns="http://www.w3.org/2000/svg" xmlns:xlink="http://www.w3.org/1999/xlink" xml:space="preserve">
    <g id="u">
        <path d="M31.515,9.558l-0,-9.558l20.411,0l-0,21.469l-11.108,-0l0,19.632l-9.303,-0l-0,20.005l29.448,0l0,-20.808l10.595,-0l0,-20.149l10.46,-0l-0,-19.632l30.354,-0l0,10.591l-10.976,-0l-0,19.632l-10.977,-0l0,20.924l-9.43,-0l-0,19.459l-9.431,0l0,10.017l-60.454,0l-0,-9.816l-11.104,0l-0,-20.435l11.104,-0l-0,-20.666l9.303,0l0,-20.665l11.108,-0Z" style="fill:#ffd321;"/>
    </g>
</svg>
