<?xml version="1.0" encoding="UTF-8" standalone="no"?>
<!DOCTYPE svg PUBLIC "-//W3C//DTD SVG 1.1//EN" "http://www.w3.org/Graphics/SVG/1.1/DTD/svg11.dtd">
<svg width="100%" height="100%" viewBox="0 0 501 91" version="1.1" xmlns="http://www.w3.org/2000/svg" xmlns:xlink="http://www.w3.org/1999/xlink">
    <g id="wave">
        <path d="M484.302,10.01l7.75,-0l-0,10.333l8.395,-0l-0,30.352l-8.395,-0l-0,18.405l-19.697,0l-0,10.979l-30.581,-0l0,9.929l-139.653,-0l0,-9.929l-41.573,-0l0,-11.06l-28.657,0l0,-9.8l-41.389,0l-0,-9.041l-130.056,0l0,8.783l-39.781,0l0,9.816l-10.849,0l0,-9.816l10.591,0l0,-8.783l18.857,0l0,-9.816l70.384,0l0,-10.074l111.335,-0l0,10.074l39.523,0l-0,7.75l49.415,-0l-0,8.799l0.273,-0l-0,3.632l69.812,0l0,-10.494l61.674,0l-0,-10.01l20.665,0l-0,-10.332l9.364,-0l-0,-29.707l12.593,0l-0,10.01Zm-474.486,59.025l-9.816,0l-0,10.85l9.816,-0l0,-10.85Z" style="fill:#f6cc20;"/>
    </g>
</svg>
